HIERARCHY
ROOT SimulationBone
{
	OFFSET 0.000000 0.000000 0.000000
	CHANNELS 6 Xposition Yposition Zposition Zrotation Yrotation Xrotation 
	JOINT Hips
	{
		OFFSET 0.000000 0.000000 0.000000
		CHANNELS 6 Xposition Yposition Zposition Zrotation Yrotation Xrotation 
		JOINT RightUpLeg
		{
			OFFSET 0.103456 1.857826 10.548504
			CHANNELS 3 Zrotation Yrotation Xrotation
			JOINT RightLeg
			{
				OFFSET 43.499996 -0.000038 0.000006
				CHANNELS 3 Zrotation Yrotation Xrotation
				JOINT RightFoot
				{
					OFFSET 42.372192 0.000011 -0.000004
					CHANNELS 3 Zrotation Yrotation Xrotation
					JOINT RightToe
					{
						OFFSET 17.300018 0.000006 0.000004
						CHANNELS 3 Zrotation Yrotation Xrotation
						End Site
						{
							OFFSET 0.000000 0.000000 0.000000
						}
					}
				}
			}
		}
		JOINT LeftUpLeg
		{
			OFFSET 0.103455 1.857819 -10.548502
			CHANNELS 3 Zrotation Yrotation Xrotation
			JOINT LeftLeg
			{
				OFFSET 43.500038 -0.000031 0.000011
				CHANNELS 3 Zrotation Yrotation Xrotation
				JOINT LeftFoot
				{
					OFFSET 42.372261 -0.000008 0.000014
					CHANNELS 3 Zrotation Yrotation Xrotation
					JOINT LeftToe
					{
						OFFSET 17.299999 -0.000004 0.000004
						CHANNELS 3 Zrotation Yrotation Xrotation
						End Site
						{
							OFFSET 0.000000 0.000000 0.000000
						}
					}
				}
			}
		}
		JOINT Spine
		{
			OFFSET 6.901965 -2.603737 -0.000000
			CHANNELS 3 Zrotation Yrotation Xrotation
			JOINT Spine1
			{
				OFFSET 12.588105 0.000013 0.000001
				CHANNELS 3 Zrotation Yrotation Xrotation
				JOINT Spine2
				{
					OFFSET 12.343203 0.000010 -0.000000
					CHANNELS 3 Zrotation Yrotation Xrotation
					JOINT Neck
					{
						OFFSET 25.832893 -0.000038 0.000001
						CHANNELS 3 Zrotation Yrotation Xrotation
						JOINT Head
						{
							OFFSET 11.766606 0.000028 0.000001
							CHANNELS 3 Zrotation Yrotation Xrotation
							End Site
							{
								OFFSET 0.000000 0.000000 0.000000
							}
						}
					}
					JOINT RightShoulder
					{
						OFFSET 19.745897 -1.480375 6.000107
						CHANNELS 3 Zrotation Yrotation Xrotation
						JOINT RightArm
						{
							OFFSET 11.284126 -0.000009 -0.000017
							CHANNELS 3 Zrotation Yrotation Xrotation
							JOINT RightForeArm
							{
								OFFSET 33.000046 0.000006 0.000030
								CHANNELS 3 Zrotation Yrotation Xrotation
								JOINT RightHand
								{
									OFFSET 25.200006 0.000034 0.000015
									CHANNELS 3 Zrotation Yrotation Xrotation
									End Site
									{
										OFFSET 0.000000 0.000000 0.000000
									}
								}
							}
						}
					}
					JOINT LeftShoulder
					{
						OFFSET 19.746096 -1.480394 -6.000075
						CHANNELS 3 Zrotation Yrotation Xrotation
						JOINT LeftArm
						{
							OFFSET 11.284135 -0.000006 -0.000006
							CHANNELS 3 Zrotation Yrotation Xrotation
							JOINT LeftForeArm
							{
								OFFSET 33.000095 0.000018 0.000006
								CHANNELS 3 Zrotation Yrotation Xrotation
								JOINT LeftHand
								{
									OFFSET 25.199783 0.000116 0.000436
									CHANNELS 3 Zrotation Yrotation Xrotation
									End Site
									{
										OFFSET 0.000000 0.000000 0.000000
									}
								}
							}
						}
					}
				}
			}
		}
	}
}
MOTION
Frames: 13
Frame Time: 0.016667
-54.025335 0.000000 -529.430223 0.000000 -43.558976 0.000000 -4.638047 84.634041 -2.150323 87.062922 -2.939801 174.898936 170.326353 -15.395398 164.854416 -83.633944 0.988154 -13.749297 72.324633 3.284199 -21.465193 21.454560 0.003106 0.000017 158.116038 -8.864299 -167.597269 -49.032797 -6.187945 2.119449 103.767709 -1.590431 -10.944603 21.454553 -0.003086 0.000000 10.697999 0.517289 -1.959943 11.363131 1.224714 -3.859674 11.045743 1.201271 -3.866993 -23.981795 -1.732714 -1.826329 -10.655670 2.620230 -3.372092 125.640029 -71.203046 54.355971 -32.020882 56.467829 6.321917 -92.408729 -2.364185 2.619840 -3.397322 -11.164918 35.530114 176.344952 73.147285 -2.413099 0.070427 -57.371627 -10.398092 -102.724883 -0.839842 -2.812189 0.821783 9.863313 -26.182129 
-51.177953 0.000000 -528.828333 0.000000 -44.768505 0.000000 -5.180033 83.549185 -2.439223 87.169597 -2.610801 175.627838 166.815592 -18.390210 165.842434 -83.586526 0.938397 -12.743489 74.200937 2.385339 -23.186440 21.454559 0.003107 0.000018 157.944386 -8.509883 -168.534155 -52.764741 -7.098399 2.990425 106.633245 -1.831552 -9.209419 21.454553 -0.003092 -0.000003 10.615513 0.679500 -1.803084 11.195535 1.530422 -3.532131 10.877985 1.508943 -3.541300 -25.029702 -2.623734 -1.618344 -10.410948 2.566094 -3.605123 129.953516 -71.132521 49.991878 -27.987321 56.232937 8.621929 -94.454402 -2.228716 2.700984 -4.746878 -12.211062 35.679743 176.833766 72.580645 -1.926480 -5.376817 -56.300118 -6.275616 -103.235331 -0.896887 -2.831150 0.615485 7.898509 -26.860410 
-48.270234 0.000000 -528.240325 0.000000 -45.875733 0.000000 -5.537663 82.848213 -2.650286 87.615336 -2.719069 176.945687 163.688912 -19.685300 168.250358 -82.042681 0.526803 -12.771664 76.036493 2.743527 -23.310413 21.454557 0.003108 0.000018 158.869148 -6.890002 -168.704006 -55.283670 -7.525987 3.157841 108.969704 -1.734551 -7.453767 21.454553 -0.003094 -0.000002 10.626412 0.781253 -1.838306 11.213985 1.737116 -3.592473 10.896425 1.715269 -3.602888 -26.368634 -3.076211 -1.581058 -10.071944 2.252480 -3.720857 132.925409 -70.748066 47.008091 -23.274576 56.142770 10.447071 -95.995951 -2.025676 2.756852 -5.592557 -13.481235 34.174642 176.780049 72.496621 -1.983868 -10.639197 -55.707438 -2.295932 -103.428802 -0.887265 -2.839982 0.880929 6.266982 -27.520347 
-45.308173 0.000000 -527.664062 0.000000 -46.882656 0.000000 -5.700619 82.531763 -2.816672 88.258621 -3.162006 178.658377 161.151893 -19.557667 171.506526 -79.140473 -0.146276 -13.445538 77.667301 3.797356 -22.465601 21.454554 0.003109 0.000018 160.867656 -4.447869 -168.407048 -56.381527 -7.564859 2.802598 110.773040 -1.416347 -5.728168 21.454551 -0.003094 -0.000000 10.675103 0.829613 -1.961494 11.307897 1.847072 -3.832800 10.990409 1.823776 -3.843873 -27.679676 -3.203147 -1.783943 -9.707367 1.751173 -3.848477 134.648603 -70.285459 45.295300 -18.397344 56.207993 12.029367 -96.877599 -1.829402 2.782693 -5.996582 -14.854783 31.791072 176.562435 72.740282 -2.200724 -15.139430 -55.498121 1.201581 -103.582146 -0.891357 -2.846280 1.465543 5.081614 -28.005286 
-42.297766 0.000000 -527.097409 0.000000 -47.791777 0.000000 -5.661067 82.600471 -2.969934 88.965402 -3.825212 -179.428122 159.433595 -18.367606 175.099631 -75.010974 -0.967457 -14.387157 78.945771 5.035732 -21.320429 21.454553 0.003109 0.000019 163.921221 -1.633105 -167.920310 -55.866449 -7.257852 2.138613 112.030012 -0.989429 -4.099375 21.454550 -0.003093 0.000001 10.706502 0.831658 -2.068777 11.368712 1.862694 -4.046141 11.051310 1.838110 -4.057302 -28.646588 -3.118791 -2.294586 -9.384375 1.135084 -4.115614 135.331058 -69.947889 44.629113 -13.876398 56.440146 13.600302 -96.943606 -1.713643 2.777512 -6.060213 -16.179456 29.313692 176.546019 73.156615 -2.206059 -18.232591 -55.659800 3.809483 -103.972205 -0.989699 -2.856818 2.212871 4.447763 -28.142369 
-39.245008 0.000000 -526.538231 0.000000 -48.605989 0.000000 -5.426699 83.046194 -3.135897 89.614252 -4.599299 -177.544536 158.657017 -16.532162 178.593167 -69.863552 -1.817766 -15.207915 79.743797 6.013330 -20.461482 21.454553 0.003107 0.000020 167.912096 1.160054 -167.550909 -53.672674 -6.619901 1.406341 112.632195 -0.572582 -2.591502 21.454549 -0.003093 0.000000 10.673427 0.790873 -2.065644 11.303875 1.779912 -4.044434 10.986491 1.755333 -4.055095 -29.022061 -2.932275 -3.132030 -9.167848 0.482435 -4.612041 135.250676 -69.884777 44.716257 -10.141513 56.829778 15.350915 -96.110951 -1.729636 2.741532 -5.932562 -17.292762 27.472062 177.017420 73.593908 -1.710322 -19.359924 -56.173549 5.126454 -104.820123 -1.243148 -2.876192 2.966982 4.399704 -27.779134 
-36.155894 0.000000 -525.984392 0.000000 -49.328482 0.000000 -5.060542 83.825668 -3.321234 90.092842 -5.440026 -176.081136 158.670349 -14.474895 -178.443637 -64.226624 -2.493632 -15.453443 80.132987 6.386703 -20.019436 21.454557 0.003107 0.000020 172.361873 3.722306 -167.720172 -50.209758 -5.681363 0.849433 112.119904 -0.309964 -1.021516 21.454551 -0.003093 -0.000001 10.559856 0.697651 -1.894854 11.082360 1.573714 -3.714358 10.764873 1.551125 -3.723785 -28.824856 -2.748924 -4.145131 -9.124024 -0.111131 -5.283298 134.943390 -70.112804 45.009876 -7.261918 57.292810 17.313364 -94.588502 -1.842038 2.680965 -5.786577 -18.000031 26.724603 177.801995 73.912765 -0.896984 -18.549789 -56.795234 5.027439 -106.124405 -1.633393 -2.906709 3.567248 4.717276 -26.891611 
-33.036420 0.000000 -525.433758 0.000000 -49.962660 0.000000 -4.633024 84.881883 -3.523852 90.331854 -6.292966 -175.368946 159.221378 -12.532311 -176.318889 -58.633910 -2.919038 -14.796465 80.199633 5.966281 -19.943076 21.454562 0.003110 0.000018 176.713511 6.007899 -168.738249 -46.036204 -4.547634 0.611888 110.037765 -0.247436 0.715575 21.454553 -0.003093 -0.000001 10.365516 0.550910 -1.531899 10.702530 1.241237 -3.006321 10.384826 1.222932 -3.013761 -28.175072 -2.650628 -5.149344 -9.291189 -0.572680 -6.027564 134.924390 -70.589441 44.989068 -5.161269 57.738368 19.461093 -92.663082 -2.015218 2.606071 -5.742163 -18.136699 27.292435 178.577317 74.027785 -0.098566 -16.078661 -57.214954 3.531315 -107.791643 -2.113350 -2.947291 3.893976 5.149977 -25.500406 
-29.892581 0.000000 -524.884192 0.000000 -50.512078 0.000000 -4.189706 86.137978 -3.738773 90.389972 -7.035596 -175.348909 160.124236 -10.795302 -174.884767 -53.300920 -3.272559 -13.661779 79.859151 5.121377 -19.938938 21.454565 0.003113 0.000016 -179.439820 8.175601 -170.134125 -41.885974 -3.476423 0.430557 106.318205 -0.116070 2.191386 21.454557 -0.003092 0.000000 10.123850 0.394205 -1.046780 10.227279 0.879446 -2.054626 9.909350 0.866899 -2.059904 -27.345822 -2.639371 -5.993053 -9.581786 -0.927026 -6.701335 135.385713 -71.156266 44.472312 -3.432762 58.101555 21.798507 -90.643050 -2.299274 2.536390 -5.686660 -17.674093 28.695311 179.086057 74.050312 0.424080 -12.743305 -57.316302 1.064491 -109.582311 -2.598410 -2.990530 3.988198 5.557186 -23.646610 
-26.730373 0.000000 -524.333560 0.000000 -50.980389 0.000000 -3.764312 87.507077 -3.955950 90.350664 -7.569158 -175.847426 161.217233 -9.270264 -173.897483 -48.371643 -3.670128 -12.613460 79.016278 4.288229 -19.777397 21.454563 0.003112 0.000015 -176.384111 10.329534 -171.270407 -38.440666 -2.672502 -0.026338 101.076258 0.307134 2.959400 21.454559 -0.003090 0.000000 9.874493 0.272571 -0.531121 9.733631 0.588892 -1.037433 9.415562 0.582489 -1.040973 -26.619668 -2.693594 -6.565976 -9.877789 -1.226934 -7.173259 136.392922 -71.641909 43.407684 -1.635613 58.319330 24.303451 -88.793969 -2.728960 2.485307 -5.450330 -16.661043 30.289348 179.167295 74.130941 0.509285 -9.441405 -57.100667 -1.818491 -111.248377 -3.009383 -3.033746 3.930777 5.850813 -21.371417 
-23.555790 0.000000 -523.779725 0.000000 -51.371301 0.000000 -3.368294 88.882111 -4.150852 90.282190 -7.925759 -176.616239 162.284844 -7.888899 -173.126704 -44.029461 -4.102027 -11.921469 77.722620 3.603137 -19.748462 21.454560 0.003110 0.000016 -174.187145 12.506101 -171.654757 -35.967229 -2.132206 -0.774356 94.738138 0.976414 3.124053 21.454560 -0.003087 0.000000 9.644773 0.195079 -0.066925 9.276550 0.394929 -0.118005 8.958445 0.394074 -0.120386 -26.160728 -2.736778 -6.887158 -10.064679 -1.552218 -7.396905 137.777153 -71.953136 41.974243 0.473032 58.363739 26.805717 -87.189590 -3.185207 2.444589 -4.937604 -15.308069 31.497068 178.873065 74.376829 0.212902 -6.725122 -56.727922 -4.689448 -112.653710 -3.327809 -3.072271 3.821314 6.039910 -18.699571 
-20.374829 0.000000 -523.220553 0.000000 -51.688553 0.000000 -3.007228 90.156396 -4.296735 90.238575 -8.148364 -177.422671 163.145633 -6.610897 -172.423575 -40.423437 -4.521989 -11.684152 76.117963 3.087474 -20.125855 21.454558 0.003110 0.000017 -172.812540 14.661288 -171.004125 -34.603871 -1.869654 -1.718748 87.881021 1.791466 2.971585 21.454557 -0.003085 -0.000001 9.455333 0.161004 0.282027 8.898582 0.299904 0.575569 8.580501 0.303236 0.573751 -26.061345 -2.682712 -7.016047 -10.058937 -1.968555 -7.365990 139.274661 -72.047386 40.442754 2.997758 58.227240 29.114214 -85.829581 -3.544258 2.408709 -4.143925 -13.869016 31.887166 178.275443 74.844670 -0.389154 -4.891748 -56.389773 -7.270856 -113.722056 -3.556648 -3.101856 3.743750 6.148618 -15.678137 
-17.193485 0.000000 -522.653907 0.000000 -51.935894 0.000000 -2.686814 91.244987 -4.371646 90.247496 -8.194107 -178.170166 163.766107 -5.574494 -171.929590 -37.518266 -4.911726 -11.627281 74.516707 2.665889 -20.579153 21.454558 0.003109 0.000018 -172.110467 16.513507 -169.765718 -34.380224 -2.088617 -2.694954 81.468358 2.663205 2.941479 21.454555 -0.003084 -0.000003 9.312329 0.168768 0.515169 8.613187 0.298815 1.041435 8.295144 0.304961 1.039612 -26.241347 -2.471540 -7.050893 -9.898834 -2.457627 -7.148576 140.646092 -71.994650 39.050416 5.715195 57.953921 31.130943 -84.605737 -3.820419 2.374790 -3.229956 -12.634796 31.495791 177.379999 75.437427 -1.291997 -3.818551 -56.148784 -9.501952 -114.506099 -3.725577 -3.123598 3.696673 6.186305 -12.465839 
